<svg width="753" height="186" viewBox="0 0 753 186" fill="none" xmlns="http://www.w3.org/2000/svg">
<g clip-path="url(#clip0_73_4498)">
<rect width="753" height="186" fill="white"/>
<path d="M269.964 56.0115C261.25 56.0115 254.667 57.9529 250.213 61.8358C245.759 65.7186 243.532 71.4458 243.532 79.0173V87.7537H287.828V103.77H243.532V142.793H224.652V79.0173C224.652 66.6893 228.574 57.0308 236.416 50.0416C244.355 42.9555 255.248 39.4124 269.093 39.4124C274.902 39.4124 280.324 40.0433 285.359 41.3053C290.393 42.5672 294.799 44.4115 298.575 46.8383L292.62 62.2726C286.617 58.0985 279.065 56.0115 269.964 56.0115Z" fill="#18494D"/>
<path d="M309.586 65.0391H327.74V142.793H309.586V65.0391ZM318.736 52.2257C315.444 52.2257 312.684 51.2065 310.457 49.168C308.231 47.0324 307.117 44.4115 307.117 41.3053C307.117 38.199 308.231 35.6266 310.457 33.5881C312.684 31.4525 315.444 30.3848 318.736 30.3848C322.028 30.3848 324.787 31.404 327.014 33.4425C329.241 35.3839 330.354 37.8592 330.354 40.8684C330.354 44.0718 329.241 46.7898 327.014 49.0224C324.884 51.158 322.124 52.2257 318.736 52.2257Z" fill="#18494D"/>
<path d="M395.572 64.1655C405.351 64.1655 413.193 67.0291 419.099 72.7563C425.005 78.4834 427.958 86.9772 427.958 98.2374V142.793H409.804V100.567C409.804 93.7721 408.207 88.6759 405.012 85.2784C401.817 81.7839 397.266 80.0366 391.36 80.0366C384.679 80.0366 379.403 82.0751 375.53 86.1521C371.657 90.132 369.721 95.9077 369.721 103.479V142.793H351.567V65.0391H368.849V75.086C371.851 71.4943 375.627 68.7763 380.177 66.932C384.728 65.0876 389.859 64.1655 395.572 64.1655Z" fill="#18494D"/>
<path d="M494.556 138.57C492.426 140.318 489.812 141.628 486.714 142.502C483.713 143.375 480.518 143.812 477.129 143.812C468.609 143.812 462.025 141.58 457.377 137.114C452.73 132.649 450.406 126.145 450.406 117.603V47.8575H468.56V65.6215H489.328V80.1822H468.56V117.166C468.56 120.952 469.48 123.864 471.32 125.903C473.256 127.844 475.919 128.815 479.307 128.815C483.374 128.815 486.762 127.747 489.473 125.611L494.556 138.57Z" fill="#18494D"/>
<path d="M543.897 128.378C552.321 128.378 559.34 125.563 564.956 119.933L574.541 131.144C571.152 135.319 566.795 138.473 561.47 140.609C556.145 142.744 550.142 143.812 543.462 143.812C534.942 143.812 527.438 142.113 520.951 138.716C514.464 135.319 509.429 130.611 505.847 124.592C502.361 118.477 500.619 111.585 500.619 103.916C500.619 96.3445 502.313 89.5495 505.702 83.5311C509.187 77.4157 513.932 72.6592 519.934 69.2617C526.034 65.8642 532.908 64.1655 540.557 64.1655C547.819 64.1655 554.402 65.7671 560.308 68.9705C566.311 72.0768 571.056 76.5906 574.541 82.5119C578.027 88.3362 579.769 95.1797 579.769 103.042L520.37 114.691C522.21 119.156 525.163 122.554 529.229 124.883C533.296 127.213 538.185 128.378 543.897 128.378ZM540.557 78.7261C533.877 78.7261 528.455 80.9102 524.291 85.2784C520.225 89.6466 518.192 95.5194 518.192 102.897V103.042L562.051 94.5972C560.793 89.8408 558.227 86.0064 554.354 83.0943C550.578 80.1822 545.979 78.7261 540.557 78.7261Z" fill="#18494D"/>
<path d="M621.174 143.812C614.88 143.812 608.732 142.987 602.729 141.337C596.727 139.687 591.934 137.6 588.352 135.076L595.323 121.243C598.808 123.573 602.971 125.466 607.812 126.922C612.75 128.281 617.591 128.96 622.335 128.96C633.179 128.96 638.601 126.097 638.601 120.37C638.601 117.652 637.197 115.759 634.39 114.691C631.679 113.623 627.273 112.604 621.174 111.633C614.783 110.662 609.555 109.546 605.489 108.284C601.519 107.022 598.034 104.838 595.032 101.732C592.128 98.5286 590.675 94.1119 590.675 88.4818C590.675 81.1044 593.725 75.2316 599.825 70.8634C606.021 66.3981 614.348 64.1655 624.804 64.1655C630.13 64.1655 635.455 64.7964 640.78 66.0584C646.105 67.2232 650.462 68.8249 653.851 70.8634L646.879 84.696C640.296 80.8132 632.889 78.8717 624.659 78.8717C619.334 78.8717 615.268 79.6968 612.46 81.347C609.749 82.9002 608.393 84.9872 608.393 87.6081C608.393 90.5203 609.846 92.6073 612.75 93.8692C615.752 95.0341 620.351 96.1504 626.547 97.2182C632.744 98.1889 637.827 99.3052 641.796 100.567C645.766 101.829 649.155 103.965 651.963 106.974C654.867 109.983 656.319 114.254 656.319 119.787C656.319 127.067 653.173 132.892 646.879 137.26C640.586 141.628 632.018 143.812 621.174 143.812Z" fill="#18494D"/>
<path d="M703.614 109.449L690.107 122.262V142.793H671.953V34.753H690.107V99.9847L727.722 65.0391H749.506L717.12 97.655L752.556 142.793H730.481L703.614 109.449Z" fill="#18494D"/>
<path fill-rule="evenodd" clip-rule="evenodd" d="M43.1955 93.8785L95.7333 124.297L174.627 78.623V97.1278L95.7333 142.792L43.1955 112.383C39.3838 110.186 36.2754 104.219 36.2754 99.1306C36.2754 94.042 39.3838 91.6816 43.1955 93.8785Z" fill="#65BD7D"/>
<path fill-rule="evenodd" clip-rule="evenodd" d="M43.1935 131.273L95.7313 161.692L174.625 116.028V134.523L148.3 149.758L148.289 149.778L95.7313 180.187L43.1935 149.778C39.3819 147.561 36.2734 141.614 36.2734 136.526C36.2734 131.437 39.3819 129.056 43.1935 131.273Z" fill="#198FD9"/>
<path fill-rule="evenodd" clip-rule="evenodd" d="M174.629 104.662V146.249L197.744 112.091L174.629 104.662Z" fill="#198FD9"/>
<path fill-rule="evenodd" clip-rule="evenodd" d="M43.1954 56.8691L95.7331 87.2881L174.626 41.6238V60.1184L95.7331 105.793L43.1954 75.3739C39.3837 73.177 36.2752 67.2097 36.2752 62.1211C36.2752 57.0326 39.3837 54.6722 43.1954 56.8691Z" fill="#0077B6"/>
<path fill-rule="evenodd" clip-rule="evenodd" d="M36.2591 41.5251V83.0919L13.1445 48.9536L36.2591 41.5251Z" fill="#0077B6"/>
<path fill-rule="evenodd" clip-rule="evenodd" d="M31.4032 68.5446L77.184 95.0501V76.5453L50.8488 61.3001H50.8285L31.4032 50.0398V68.5446Z" fill="#0077B6"/>
<path fill-rule="evenodd" clip-rule="evenodd" d="M115.423 7.03288L154.253 29.5023V48.0071L115.423 25.5377C111.621 23.3408 108.503 17.3735 108.503 12.2849C108.503 7.19637 111.621 4.83601 115.423 7.03288Z" fill="#0077B6"/>
<path fill-rule="evenodd" clip-rule="evenodd" d="M128.86 33.4194L174.631 59.9147V41.4099L148.306 26.1749L148.286 26.1544L128.86 14.9146V33.4194Z" fill="#0077B6"/>
</g>
<defs>
<clipPath id="clip0_73_4498">
<rect width="753" height="186" fill="white"/>
</clipPath>
</defs>
</svg>
